<?xml version="1.0" encoding="utf-8"?>
<!-- Generator: Adobe Illustrator 27.0.0, SVG Export Plug-In . SVG Version: 6.00 Build 0)  -->
<svg version="1.1" id="Слой_2" xmlns="http://www.w3.org/2000/svg" xmlns:xlink="http://www.w3.org/1999/xlink" x="0px" y="0px"
	 viewBox="0 0 760 713.7" style="enable-background:new 0 0 760 713.7;" xml:space="preserve">
<path d="M513,367.3c21.7-5,39.5-6,51.7-6c24,0,36.2,3.9,46.3-4.1c11.1-8.6,11.8-24.9,12.1-35.1c2.7-92.4-5.1-135.8-5.1-135.8
	c-12.3-84.1-17.2-107.4-29.9-137.5c-12.6-30-26.5-51.7-31-50.2c-3.7,1.2,1.1,13.9-3,39.3c-1.1,7.1-2.9,13.5-6.4,26.3
	c-6.9,25.3-8.6,24.7-10.5,36c-3.5,21,2.5,22.5-2.3,36c-5.1,14.4-12.1,13.2-17.6,29.9c-3.6,11-1.7,14.8-6.7,24.4
	c-5.7,10.9-10.2,9.9-13.3,17.5c-5.7,14,7.8,21.7,5.7,40.1c-1.9,16.8-14.8,28.9-21.1,33.4c-12.4,9-24,13.4-31.5,15.6
	c-6.9,2-16.4,4.7-28.8,3.9c-13.6-0.9-23.7-5.5-30.4-8.6c-9.1-4.2-11.3-6.9-19.9-12c-16.9-10-25.3-9.8-37.7-15.4
	c-21.1-9.4-33.2-26-42.4-38.7c-19.9-27.3-17.3-44.4-34.9-51.9c-1.6-0.7-10.2-1.4-27.3-2.8c-35.2-2.9-37.1-3.1-41.5-3.8
	c-28-4.4-38.6-12.7-40.6-9.8c-5,7.2,56.4,61.9,99.3,96.1c0,0,31.4,25.1,49.8,45.7c4.5,5.1,16.8,19.6,26.4,32.2
	c0.6,0.8,1,1.3,1.3,1.8c1.9,2.8,3.9,7.1,13.8,27.2c11.7,23.8,12,24.1,12.4,26.7c2.3,15.3-4.2,36-17.8,41.9
	c-12.5,5.5-20.2-5.9-34.5-0.5c-12.7,4.8-9.4,15.6-24.1,24.3c-15.4,9.1-25.9,1.5-36.7,11.7c-7.5,7.1-3.7,12.8-11,19.1
	c-8.9,7.8-18.3,2.5-39,4.7c-22.7,2.5-21.6,10-44.6,12.5c-16.8,1.8-18.7-2.1-38.7-0.3c-14.5,1.2-19.6,3.8-34.6,7
	c-40.1,8.6-61.2,2.8-62.4,8c-2,9.1,62.3,30.8,72.2,34.1c35.7,12,63.6,18.1,69.7,19.4c26.9,5.8,74,14.9,135.1,15.3
	c79.2,0.6,94-13.9,99.2-23.5c1.1-2,1.8-3.8,2.3-5.6c5.3-19.2,2.8-33.6,2.2-44c-1.4-23.5,12.4-53.8,32.6-59.6
	c14.4-4.1,28.7,5.6,36.3,10.7c24.4,16.5,30.9,43.1,32.6,51.2l0,0c5.3,3.5,15.8,11,19.2,14.8c8.9,10.3-2.1,30.3,0.9,31.6
	c3.2,1.3,19.7-18.9,23.7-46.2c1.1-7.4,3-20.2-1.5-35.3c-10.6-35.4-40-40.7-43-64.9C486.9,404.3,489.7,388.9,513,367.3z"/>
<path d="M369.5,287.3"/>
</svg>
