<?xml version="1.0" encoding="utf-8"?>
<!-- Generator: Adobe Illustrator 27.0.0, SVG Export Plug-In . SVG Version: 6.00 Build 0)  -->
<svg version="1.1" xmlns="http://www.w3.org/2000/svg" xmlns:xlink="http://www.w3.org/1999/xlink" x="0px" y="0px"
	 viewBox="0 0 75.8 60.6" style="enable-background:new 0 0 75.8 60.6;" xml:space="preserve">
<style type="text/css">
	.st0{display:none;}
	.st1{fill:#130F59;stroke:#000000;stroke-miterlimit:10;}
	.st2{fill:#FFFFFF;stroke:#000000;stroke-miterlimit:10;}
</style>
<g id="Слой_5_xA0_Изображение_00000002373329055438416350000011016871464503599037_" class="st0">
	
		<image style="display:inline;overflow:visible;" width="234" height="66" id="Слой_5_xA0_Изображение" xlink:href="28C8A2286FC496A5.png"  transform="matrix(0.24 0 0 0.24 3.117 45.255)">
	</image>
</g>
<g id="Слой_6_xA0_Изображение_00000001626315207961216300000014466453060287499152_" class="st0">
	
		<image style="display:inline;overflow:visible;" width="300" height="66" id="Слой_6_xA0_Изображение" xlink:href="28C8A2286FC496A7.png"  transform="matrix(0.24 0 0 0.24 0.957 24.855)">
	</image>
</g>
<g id="Слой_4_xA0_Изображение_00000124870455558890388240000012500109177834377872_" class="st0">
	
		<image style="display:inline;overflow:visible;" width="307" height="88" id="Слой_4_xA0_Изображение" xlink:href="28C8A2286FC496A2.png"  transform="matrix(0.24 0 0 0.24 3.117 0.135)">
	</image>
</g>
<g id="Слой_4">
	<path class="st1" d="M3.1,1.1c0.2-0.3,2.4,1.4,6.9,2.5c3.8,1,5.3,0.6,10.4,1.2c4.8,0.6,7.2,0.9,9.3,1.9c6,2.8,10.2,9,10.2,9l0,0
		c0,0,3.2-3.6,5.6-5.4c4.4-3.2,9.9-3.1,15.3-3.1c3.5,0.1,5,0.5,9,0.2c3.5-0.3,5.3-0.9,5.4-0.5c0.3,0.7-3.4,3.4-8,4.4
		c-1.3,0.3-3.5,0.2-8,0.2c-7.7-0.1-8.6-0.2-10.2,0.3c-3.6,1.1-7.1,3.5-6.8,4.4c0,0.1,0.2,0.2,0.4,0.3c1.1,0.7,2.4,0,2.5,0.2
		c0.2,0.3-2.3,2.8-6.1,3.6c-2.9,0.6-5.7-0.1-5.8-0.7c-0.1-0.7,3.5-0.9,3.7-2.4c0.3-1.8-4.5-4.1-4.9-4.2c-4.9-2.2-8.3-1.5-12.2-2
		C9.9,9.7,2.8,1.6,3.1,1.1z"/>
	<path class="st1" d="M1,31.6c0.1-0.7,3.3-0.4,7.2-1.2c8.7-1.7,9.7-6.3,15.3-5.6c4.8,0.6,8.2,2.7,8.2,2.7c1.4,0.9,3.2,2.4,4.6,1.7
		c0.8-0.4,0.8-1.1,1.9-1.5c0.8-0.3,1.7-0.2,2.4,0.2c0.8,0.4,0.9,1,1.4,1.4c1.3,0.9,3.7-1.5,6.3-2.5c1.5-0.6,4.9,0,11.7,1.3
		c4.8,0.9,6.4,1.3,9.3,1.2c2.9-0.1,4.5-0.7,4.6-0.5c0.1,0.5-6,4.5-13.5,4.3c-0.4,0-0.1,0-11.8-1.5c-2.3-0.3-4.8-0.6-7,0.8
		c-0.6,0.4-0.4,0.4-2.8,2.4c-2.6,2.2-2.5,1.9-3.7,3c-2.1,1.9-2.4,2.7-3.3,2.8c-1.4,0-2.9-1.7-2.6-2.4c0.2-0.6,1.4-0.1,2.5-0.8
		c1.4-0.9,2.1-3.3,1.5-4.8c-1.1-2.7-6.5-2.6-8.3-2.5c-2.2,0-2.7,0.4-11.9,2.7c-2.8,0.7-5.1,1.3-8,0.7C3.1,33.1,0.9,32.3,1,31.6z"/>
	<path class="st1" d="M3.1,59.5c-0.1-0.2,3.4-3.2,6.1-5.4c6.3-5.2,8.2-6.1,9.3-6.6c3-1.3,5.8-2.5,8.2-1.4c1.1,0.5,2.3,1.6,3.2,1.2
		c0.9-0.4,0.9-1.8,2-2c0.5-0.1,1,0.1,1,0.1c0.6,0.3,0.6,0.9,1,1.2c0.7,0.4,1.9-0.8,3.1-1.3c1-0.4,2.4-0.4,8.5,2.9
		c4.3,2.3,4,2.6,5.9,3.3c4.3,1.6,7.9,1.1,7.9,1.3c0,0.2-3.6,0.7-7.8,0.2c-2-0.2-3.8-0.5-5.9-1.4c-2.1-0.9-2.4-1.5-4.9-2.4
		c-1.9-0.7-3.5-1.2-4.9-0.5c-1.1,0.5-0.8,1-2.2,1.9c-1.7,1-2.7,0.6-3.6,1.7c-0.7,0.9-0.4,1.6-1,2c-1.1,0.7-3.5-0.3-3.6-1.4
		c-0.1-1.2,3-2.2,2.8-2.9c-0.1-0.2-0.4-0.4-1.9-0.5c-3.1-0.1-5.4,0.6-5.8,0.7c-2.7,0.8-4.5,1.8-4.8,1.9C8.9,55.6,3.3,59.7,3.1,59.5z
		"/>
	<path class="st2" d="M75.1,42.3"/>
</g>
</svg>
